<?xml version="1.0" encoding="UTF-8" standalone="no"?>
<!DOCTYPE svg PUBLIC "-//W3C//DTD SVG 1.1//EN"
 "http://www.w3.org/Graphics/SVG/1.1/DTD/svg11.dtd">
<!-- Generated by graphviz version 3.0.0 (20220226.1711)
 -->
<!-- Title: dependencies Pages: 1 -->
<svg width="866pt" height="250pt"
 viewBox="0.00 0.00 866.00 249.80" xmlns="http://www.w3.org/2000/svg" xmlns:xlink="http://www.w3.org/1999/xlink">
<g id="graph0" class="graph" transform="scale(1 1) rotate(0) translate(4 245.8)">
<title>dependencies</title>
<polygon fill="white" stroke="transparent" points="-4,4 -4,-245.8 862,-245.8 862,4 -4,4"/>
<text text-anchor="middle" x="429" y="-8.2" font-family="sans-serif" font-size="14.00">dependencies</text>
<g id="clust1" class="cluster">
<title>cluster_AppModule</title>
<polygon fill="none" stroke="black" stroke-dasharray="1,5" points="298,-32.8 298,-233.8 568,-233.8 568,-32.8 298,-32.8"/>
</g>
<g id="clust3" class="cluster">
<title>cluster_AppModule_imports</title>
<polygon fill="none" stroke="black" points="444,-40.8 444,-168.8 552,-168.8 552,-40.8 444,-40.8"/>
</g>
<g id="clust6" class="cluster">
<title>cluster_AppModule_providers</title>
<polygon fill="none" stroke="black" points="306,-116.8 306,-168.8 436,-168.8 436,-116.8 306,-116.8"/>
</g>
<g id="clust7" class="cluster">
<title>cluster_AuthModule</title>
<polygon fill="none" stroke="black" stroke-dasharray="1,5" points="8,-32.8 8,-100.8 290,-100.8 290,-32.8 8,-32.8"/>
</g>
<g id="clust12" class="cluster">
<title>cluster_AuthModule_providers</title>
<polygon fill="none" stroke="black" points="16,-40.8 16,-92.8 282,-92.8 282,-40.8 16,-40.8"/>
</g>
<g id="clust13" class="cluster">
<title>cluster_UsersModule</title>
<polygon fill="none" stroke="black" stroke-dasharray="1,5" points="576,-108.8 576,-176.8 850,-176.8 850,-108.8 576,-108.8"/>
</g>
<g id="clust16" class="cluster">
<title>cluster_UsersModule_exports</title>
<polygon fill="none" stroke="black" points="732,-116.8 732,-168.8 842,-168.8 842,-116.8 732,-116.8"/>
</g>
<g id="clust18" class="cluster">
<title>cluster_UsersModule_providers</title>
<polygon fill="none" stroke="black" points="584,-116.8 584,-168.8 724,-168.8 724,-116.8 584,-116.8"/>
</g>
<!-- AuthModule -->
<g id="node1" class="node">
<title>AuthModule</title>
<polygon fill="#8dd3c7" stroke="black" points="539.55,-160.8 536.55,-164.8 515.55,-164.8 512.55,-160.8 452.45,-160.8 452.45,-124.8 539.55,-124.8 539.55,-160.8"/>
<text text-anchor="middle" x="496" y="-138.6" font-family="Times,serif" font-size="14.00">AuthModule</text>
</g>
<!-- AppModule -->
<g id="node3" class="node">
<title>AppModule</title>
<polygon fill="#8dd3c7" stroke="black" points="537.66,-225.8 534.66,-229.8 513.66,-229.8 510.66,-225.8 454.34,-225.8 454.34,-189.8 537.66,-189.8 537.66,-225.8"/>
<text text-anchor="middle" x="496" y="-203.6" font-family="Times,serif" font-size="14.00">AppModule</text>
</g>
<!-- AuthModule&#45;&gt;AppModule -->
<g id="edge1" class="edge">
<title>AuthModule&#45;&gt;AppModule</title>
<path fill="none" stroke="black" d="M496,-160.91C496,-160.91 496,-179.79 496,-179.79"/>
<polygon fill="black" stroke="black" points="492.5,-179.79 496,-189.79 499.5,-179.79 492.5,-179.79"/>
</g>
<!-- UsersModule -->
<g id="node2" class="node">
<title>UsersModule</title>
<polygon fill="#8dd3c7" stroke="black" points="543.94,-84.8 540.94,-88.8 519.94,-88.8 516.94,-84.8 452.06,-84.8 452.06,-48.8 543.94,-48.8 543.94,-84.8"/>
<text text-anchor="middle" x="498" y="-62.6" font-family="Times,serif" font-size="14.00">UsersModule</text>
</g>
<!-- UsersModule&#45;&gt;AuthModule -->
<g id="edge4" class="edge">
<title>UsersModule&#45;&gt;AuthModule</title>
<path fill="none" stroke="black" d="M510.61,-84.81C510.61,-84.81 510.61,-114.65 510.61,-114.65"/>
<polygon fill="black" stroke="black" points="507.11,-114.65 510.61,-124.65 514.11,-114.65 507.11,-114.65"/>
</g>
<!-- UsersModule&#45;&gt;AppModule -->
<g id="edge2" class="edge">
<title>UsersModule&#45;&gt;AppModule</title>
<path fill="none" stroke="black" d="M451.99,-72.8C447.19,-72.8 444.02,-72.8 444.02,-72.8 444.02,-72.8 444.02,-201.8 444.02,-201.8 444.02,-201.8 445.05,-201.8 445.05,-201.8"/>
<polygon fill="black" stroke="black" points="444.29,-205.3 454.29,-201.8 444.29,-198.3 444.29,-205.3"/>
</g>
<!-- UsersService  -->
<g id="node7" class="node">
<title>UsersService </title>
<polygon fill="#fb8072" stroke="black" points="833.86,-160.8 740.14,-160.8 740.14,-124.8 833.86,-124.8 833.86,-160.8"/>
<text text-anchor="middle" x="787" y="-138.6" font-family="Times,serif" font-size="14.00">UsersService </text>
</g>
<!-- UsersModule&#45;&gt;UsersService  -->
<g id="edge7" class="edge">
<title>UsersModule&#45;&gt;UsersService </title>
<path fill="none" stroke="black" stroke-dasharray="5,2" d="M543.79,-60.8C625.28,-60.8 787,-60.8 787,-60.8 787,-60.8 787,-114.6 787,-114.6"/>
<polygon fill="black" stroke="black" points="783.5,-114.6 787,-124.6 790.5,-114.6 783.5,-114.6"/>
</g>
<!-- AppService -->
<g id="node4" class="node">
<title>AppService</title>
<ellipse fill="#fdb462" stroke="black" cx="371" cy="-142.8" rx="56.75" ry="18"/>
<text text-anchor="middle" x="371" y="-138.6" font-family="Times,serif" font-size="14.00">AppService</text>
</g>
<!-- AppService&#45;&gt;AppModule -->
<g id="edge3" class="edge">
<title>AppService&#45;&gt;AppModule</title>
<path fill="none" stroke="black" d="M371,-161.08C371,-182.12 371,-213.8 371,-213.8 371,-213.8 444.03,-213.8 444.03,-213.8"/>
<polygon fill="black" stroke="black" points="444.03,-217.3 454.03,-213.8 444.03,-210.3 444.03,-217.3"/>
</g>
<!-- AuthService -->
<g id="node5" class="node">
<title>AuthService</title>
<ellipse fill="#fdb462" stroke="black" cx="215" cy="-66.8" rx="59.11" ry="18"/>
<text text-anchor="middle" x="215" y="-62.6" font-family="Times,serif" font-size="14.00">AuthService</text>
</g>
<!-- AuthService&#45;&gt;AuthModule -->
<g id="edge5" class="edge">
<title>AuthService&#45;&gt;AuthModule</title>
<path fill="none" stroke="black" d="M271.01,-60.8C336.43,-60.8 435.82,-60.8 435.82,-60.8 435.82,-60.8 435.82,-142.8 435.82,-142.8 435.82,-142.8 442.27,-142.8 442.27,-142.8"/>
<polygon fill="black" stroke="black" points="442.27,-146.3 452.27,-142.8 442.27,-139.3 442.27,-146.3"/>
</g>
<!-- JwtStrategy -->
<g id="node6" class="node">
<title>JwtStrategy</title>
<ellipse fill="#fdb462" stroke="black" cx="81" cy="-66.8" rx="56.77" ry="18"/>
<text text-anchor="middle" x="81" y="-62.6" font-family="Times,serif" font-size="14.00">JwtStrategy</text>
</g>
<!-- JwtStrategy&#45;&gt;AuthModule -->
<g id="edge6" class="edge">
<title>JwtStrategy&#45;&gt;AuthModule</title>
<path fill="none" stroke="black" d="M81,-84.91C81,-94.7 81,-104.8 81,-104.8 81,-104.8 481.45,-104.8 481.45,-104.8 481.45,-104.8 481.45,-114.69 481.45,-114.69"/>
<polygon fill="black" stroke="black" points="477.95,-114.69 481.45,-124.69 484.95,-114.69 477.95,-114.69"/>
</g>
<!-- UsersService -->
<g id="node8" class="node">
<title>UsersService</title>
<ellipse fill="#fdb462" stroke="black" cx="654" cy="-142.8" rx="61.97" ry="18"/>
<text text-anchor="middle" x="654" y="-138.6" font-family="Times,serif" font-size="14.00">UsersService</text>
</g>
<!-- UsersService&#45;&gt;UsersModule -->
<g id="edge8" class="edge">
<title>UsersService&#45;&gt;UsersModule</title>
<path fill="none" stroke="black" d="M654,-124.77C654,-104.03 654,-72.8 654,-72.8 654,-72.8 553.96,-72.8 553.96,-72.8"/>
<polygon fill="black" stroke="black" points="553.96,-69.3 543.96,-72.8 553.96,-76.3 553.96,-69.3"/>
</g>
</g>
</svg>
